<svg height="274.17193603515625" version="1.1" width="2890" xmlns="http://www.w3.org/2000/svg" class="mm" xmlns:xlink="http://www.w3.org/1999/xlink" xmlns:ev="http://www.w3.org/2001/xml-events" style="overflow: hidden; "><defs></defs><defs><style type="text/css" id="svg-css">        svg {
        /* Illustrator CCS5 does not support sans-serif font family, specifying specific sans-serif font does seem to work */
        font-family: Arial,Times ;
        /* Illustrator CCS5 does not seem to support the 'rem' size unit */
        font-size: 24px ;

        --mm-padding-x: 10;
        --mm-padding-y: 10;
        --mm-margin-x: 10;
        --mm-margin-y: 3;
        --mm-text-height: 20;
        --mm-line-height: 1.1;
        --mm-box-height: 600;
        --mm-height-max: 0;
        --mm-class: box;
        }
        text { fill: black; }
        .mental-space &gt; rect { fill: #d3d3d3; }
        .mental-space &gt; .caption-text &gt; text { font-weight: bold; font-size: 18px; fill: #000000; font-family: Arial,Times; }
        .tower &gt; .caption-text { font-size: 12px; font-weight: bold; font-family: Arial,Times; }
        .tower &gt; .caption-text { fill: #000000; }
        .tower &gt; rect { fill: #DDA0DD ; }
        .tower-boxes { --mm-text-width: 100; }
        .box { font-size: 12px; font-family: Arial,Times; font-weight: normal; }
        .box &gt; text { fill: #000000; }
        .box &gt; rect { fill: #FFFFFF; }
        </style></defs><g id="viewport-20190222155156868" class="svg-pan-zoom_viewport" transform="matrix(0.39974916185117354,0,0,0.39974916185117354,0,0)" style="transform: matrix(0.399749, 0, 0, 0.399749, 0, 0);"><desc>Created with Snap</desc><g transform="matrix(1,0,0,1,-10,274.1719)" class="mental-spaces"><g transform="matrix(1,0,0,1,20,-271.1719)" class="mental-space"><rect x="-10" y="-3" width="160" height="274.1719055175781" rx="0.5em" ry="0.5em"></rect><g transform="matrix(1,0,0,1,-10,271.1719)" class="towers"><g transform="matrix(1,0,0,1,20,-171.375)" class="tower"><rect x="-10" y="-3" width="140" height="174.375" rx="0.5em" ry="0.5em"></rect><g width="120" transform="matrix(1,0,0,1,0,-437.625)" class="tower-boxes"><g transform="matrix(1,0,0,1,0,468.625)" class="box"><rect x="0" y="-11" width="120" height="33.1875" rx="0.5em" ry="0.5em"></rect><text x="10" y="3"><tspan>You should have a</tspan><tspan x="10" dy="1.1em">single portal</tspan></text></g><g transform="matrix(1,0,0,1,0,511.8125)" class="box"><rect x="0" y="-11" width="120" height="99.1875" rx="0.5em" ry="0.5em"></rect><text x="10" y="3"><tspan>I'm keen to be</tspan><tspan x="10" dy="1.1em">able to filter the</tspan><tspan x="10" dy="1.1em">submissions list</tspan><tspan x="10" dy="1.1em">when there are a</tspan><tspan x="10" dy="1.1em">number of</tspan><tspan x="10" dy="1.1em">submissions to go</tspan><tspan x="10" dy="1.1em">through</tspan></text></g></g><g transform="matrix(1,0,0,1,0,12)" class="caption-text"><text x="0" y="0em">Manage</text></g></g></g><g transform="matrix(1,0,0,1,0,24)" class="caption-text"><text x="0" y="0em">Manage</text><text x="0" y="1.1em">submissions</text></g></g><g transform="matrix(1,0,0,1,190,-271.1719)" class="mental-space"><rect x="-10" y="-3" width="610" height="274.1719055175781" rx="0.5em" ry="0.5em"></rect><g transform="matrix(1,0,0,1,-10,271.1719)" class="towers"><g transform="matrix(1,0,0,1,20,-201.375)" class="tower"><rect x="-10" y="-3" width="140" height="204.375" rx="0.5em" ry="0.5em"></rect><g width="120" transform="matrix(1,0,0,1,0,-407.625)" class="tower-boxes"><g transform="matrix(1,0,0,1,0,438.625)" class="box"><rect x="0" y="-11" width="120" height="46.390625" rx="0.5em" ry="0.5em"></rect><text x="10" y="3"><tspan>You have to make</tspan><tspan x="10" dy="1.1em">assumptions that</tspan><tspan x="10" dy="1.1em">may be wrong</tspan></text></g><g transform="matrix(1,0,0,1,0,495.0156)" class="box"><rect x="0" y="-11" width="120" height="59.59375" rx="0.5em" ry="0.5em"></rect><text x="10" y="3"><tspan>Format of data</tspan><tspan x="10" dy="1.1em">can be poor such</tspan><tspan x="10" dy="1.1em">as B2B market</tspan><tspan x="10" dy="1.1em">shares by SME</tspan></text></g><g transform="matrix(1,0,0,1,0,564.6094)" class="box"><rect x="0" y="-11" width="120" height="46.390625" rx="0.5em" ry="0.5em"></rect><text x="10" y="3"><tspan>Will Ofgem supply</tspan><tspan x="10" dy="1.1em">the templates with</tspan><tspan x="10" dy="1.1em">headers expected</tspan></text></g></g><g transform="matrix(1,0,0,1,0,12)" class="caption-text"><text x="0" y="0em">Template</text></g></g><g transform="matrix(1,0,0,1,170,-75.3906)" class="tower"><rect x="-10" y="-3" width="140" height="78.390625" rx="0.5em" ry="0.5em"></rect><g width="120" transform="matrix(1,0,0,1,0,-533.6094)" class="tower-boxes"><g transform="matrix(1,0,0,1,0,564.6094)" class="box"><rect x="0" y="-11" width="120" height="46.390625" rx="0.5em" ry="0.5em"></rect><text x="10" y="3"><tspan>We prefer regular</tspan><tspan x="10" dy="1.1em">reporting, rather</tspan><tspan x="10" dy="1.1em">than ad- hoc</tspan></text></g></g><g transform="matrix(1,0,0,1,0,12)" class="caption-text"><text x="0" y="0em">Regularity</text></g></g><g transform="matrix(1,0,0,1,320,-131.7812)" class="tower"><rect x="-10" y="-3" width="140" height="134.78118896484375" rx="0.5em" ry="0.5em"></rect><g width="120" transform="matrix(1,0,0,1,0,-477.2188)" class="tower-boxes"><g transform="matrix(1,0,0,1,0,508.2188)" class="box"><rect x="0" y="-11" width="120" height="46.390625" rx="0.5em" ry="0.5em"></rect><text x="10" y="3"><tspan>I don't understand</tspan><tspan x="10" dy="1.1em">what's being</tspan><tspan x="10" dy="1.1em">asked for</tspan></text></g><g transform="matrix(1,0,0,1,0,564.6094)" class="box"><rect x="0" y="-11" width="120" height="46.390625" rx="0.5em" ry="0.5em"></rect><text x="10" y="3"><tspan>Make sure the</tspan><tspan x="10" dy="1.1em">reason for the</tspan><tspan x="10" dy="1.1em">data is clear</tspan></text></g></g><g transform="matrix(1,0,0,1,0,12)" class="caption-text"><text x="0" y="0em">Context</text></g></g><g transform="matrix(1,0,0,1,470,-131.7812)" class="tower"><rect x="-10" y="-3" width="140" height="134.78118896484375" rx="0.5em" ry="0.5em"></rect><g width="120" transform="matrix(1,0,0,1,0,-477.2188)" class="tower-boxes"><g transform="matrix(1,0,0,1,0,508.2188)" class="box"><rect x="0" y="-11" width="120" height="59.59375" rx="0.5em" ry="0.5em"></rect><text x="10" y="3"><tspan>The process of</tspan><tspan x="10" dy="1.1em">cross tabulating</tspan><tspan x="10" dy="1.1em">data causes</tspan><tspan x="10" dy="1.1em">information loss</tspan></text></g><g transform="matrix(1,0,0,1,0,577.8125)" class="box"><rect x="0" y="-11" width="120" height="33.1875" rx="0.5em" ry="0.5em"></rect><text x="10" y="3"><tspan>Have data in raw</tspan><tspan x="10" dy="1.1em">format</tspan></text></g></g><g transform="matrix(1,0,0,1,0,12)" class="caption-text"><text x="0" y="0em">Raw data</text></g></g></g><g transform="matrix(1,0,0,1,0,24)" class="caption-text"><text x="0" y="0em">Prepare</text></g></g><g transform="matrix(1,0,0,1,810,-271.1719)" class="mental-space"><rect x="-10" y="-3" width="460" height="274.1719055175781" rx="0.5em" ry="0.5em"></rect><g transform="matrix(1,0,0,1,-10,271.1719)" class="towers"><g transform="matrix(1,0,0,1,20,-75.3906)" class="tower"><rect x="-10" y="-3" width="140" height="78.390625" rx="0.5em" ry="0.5em"></rect><g width="120" transform="matrix(1,0,0,1,0,-533.6094)" class="tower-boxes"><g transform="matrix(1,0,0,1,0,564.6094)" class="box"><rect x="0" y="-11" width="120" height="46.390625" rx="0.5em" ry="0.5em"></rect><text x="10" y="3"><tspan>The same number</tspan><tspan x="10" dy="1.1em">appears in</tspan><tspan x="10" dy="1.1em">different reports</tspan></text></g></g><g transform="matrix(1,0,0,1,0,12)" class="caption-text"><text x="0" y="0em">Repeat numbers</text></g></g><g transform="matrix(1,0,0,1,170,-118.5781)" class="tower"><rect x="-10" y="-3" width="140" height="121.578125" rx="0.5em" ry="0.5em"></rect><g width="120" transform="matrix(1,0,0,1,0,-490.4219)" class="tower-boxes"><g transform="matrix(1,0,0,1,0,521.4219)" class="box"><rect x="0" y="-11" width="120" height="46.390625" rx="0.5em" ry="0.5em"></rect><text x="10" y="3"><tspan>We'll need to be</tspan><tspan x="10" dy="1.1em">able to do multiple</tspan><tspan x="10" dy="1.1em">file uploads</tspan></text></g><g transform="matrix(1,0,0,1,0,577.8125)" class="box"><rect x="0" y="-11" width="120" height="33.1875" rx="0.5em" ry="0.5em"></rect><text x="10" y="3"><tspan>We prefer to drag</tspan><tspan x="10" dy="1.1em">and drop files</tspan></text></g></g><g transform="matrix(1,0,0,1,0,12)" class="caption-text"><text x="0" y="0em">Multiple files</text></g></g><g transform="matrix(1,0,0,1,320,-128.1875)" class="tower"><rect x="-10" y="-3" width="140" height="131.1875" rx="0.5em" ry="0.5em"></rect><g width="120" transform="matrix(1,0,0,1,0,-480.8125)" class="tower-boxes"><g transform="matrix(1,0,0,1,0,511.8125)" class="box"><rect x="0" y="-11" width="120" height="99.1875" rx="0.5em" ry="0.5em"></rect><text x="10" y="3"><tspan>File checking</tspan><tspan x="10" dy="1.1em">functionality to</tspan><tspan x="10" dy="1.1em">validate against</tspan><tspan x="10" dy="1.1em">the data Ofgem</tspan><tspan x="10" dy="1.1em">expects for the</tspan><tspan x="10" dy="1.1em">selected</tspan><tspan x="10" dy="1.1em">submission</tspan></text></g></g><g transform="matrix(1,0,0,1,0,12)" class="caption-text"><text x="0" y="0em">Validation</text></g></g></g><g transform="matrix(1,0,0,1,0,24)" class="caption-text"><text x="0" y="0em">Submit</text></g></g><g transform="matrix(1,0,0,1,1280,-271.1719)" class="mental-space"><rect x="-10" y="-3" width="460" height="274.1719055175781" rx="0.5em" ry="0.5em"></rect><g transform="matrix(1,0,0,1,-10,271.1719)" class="towers"><g transform="matrix(1,0,0,1,20,-131.7813)" class="tower"><rect x="-10" y="-3" width="140" height="134.78125" rx="0.5em" ry="0.5em"></rect><g width="120" transform="matrix(1,0,0,1,0,-477.2188)" class="tower-boxes"><g transform="matrix(1,0,0,1,0,508.2188)" class="box"><rect x="0" y="-11" width="120" height="33.1875" rx="0.5em" ry="0.5em"></rect><text x="10" y="3"><tspan>Let me view</tspan><tspan x="10" dy="1.1em">historical data</tspan></text></g><g transform="matrix(1,0,0,1,0,551.4063)" class="box"><rect x="0" y="-11" width="120" height="59.59375" rx="0.5em" ry="0.5em"></rect><text x="10" y="3"><tspan>I want to see</tspan><tspan x="10" dy="1.1em">previous</tspan><tspan x="10" dy="1.1em">submissions in the</tspan><tspan x="10" dy="1.1em">portal</tspan></text></g></g><g transform="matrix(1,0,0,1,0,12)" class="caption-text"><text x="0" y="0em">Audit trail</text></g></g><g transform="matrix(1,0,0,1,170,-118.5781)" class="tower"><rect x="-10" y="-3" width="140" height="121.578125" rx="0.5em" ry="0.5em"></rect><g width="120" transform="matrix(1,0,0,1,0,-490.4219)" class="tower-boxes"><g transform="matrix(1,0,0,1,0,521.4219)" class="box"><rect x="0" y="-11" width="120" height="33.1875" rx="0.5em" ry="0.5em"></rect><text x="10" y="3"><tspan>Let me know my</tspan><tspan x="10" dy="1.1em">data was received</tspan></text></g><g transform="matrix(1,0,0,1,0,564.6094)" class="box"><rect x="0" y="-11" width="120" height="46.390625" rx="0.5em" ry="0.5em"></rect><text x="10" y="3"><tspan>Can we be sent</tspan><tspan x="10" dy="1.1em">an email</tspan><tspan x="10" dy="1.1em">notification?</tspan></text></g></g><g transform="matrix(1,0,0,1,0,12)" class="caption-text"><text x="0" y="0em">Notification</text></g></g><g transform="matrix(1,0,0,1,320,-75.3906)" class="tower"><rect x="-10" y="-3" width="140" height="78.390625" rx="0.5em" ry="0.5em"></rect><g width="120" transform="matrix(1,0,0,1,0,-533.6094)" class="tower-boxes"><g transform="matrix(1,0,0,1,0,564.6094)" class="box"><rect x="0" y="-11" width="120" height="46.390625" rx="0.5em" ry="0.5em"></rect><text x="10" y="3"><tspan>We want to be</tspan><tspan x="10" dy="1.1em">able to download</tspan><tspan x="10" dy="1.1em">files</tspan></text></g></g><g transform="matrix(1,0,0,1,0,12)" class="caption-text"><text x="0" y="0em">Download files</text></g></g></g><g transform="matrix(1,0,0,1,0,24)" class="caption-text"><text x="0" y="0em">Track</text></g></g><g transform="matrix(1,0,0,1,1750,-271.1719)" class="mental-space"><rect x="-10" y="-3" width="160" height="274.1719055175781" rx="0.5em" ry="0.5em"></rect><g transform="matrix(1,0,0,1,-10,271.1719)" class="towers"><g transform="matrix(1,0,0,1,20,-118.5781)" class="tower"><rect x="-10" y="-3" width="140" height="121.578125" rx="0.5em" ry="0.5em"></rect><g width="120" transform="matrix(1,0,0,1,0,-490.4219)" class="tower-boxes"><g transform="matrix(1,0,0,1,0,521.4219)" class="box"><rect x="0" y="-11" width="120" height="46.390625" rx="0.5em" ry="0.5em"></rect><text x="10" y="3"><tspan>You need to have</tspan><tspan x="10" dy="1.1em">robust processes</tspan><tspan x="10" dy="1.1em">in place</tspan></text></g><g transform="matrix(1,0,0,1,0,577.8125)" class="box"><rect x="0" y="-11" width="120" height="33.1875" rx="0.5em" ry="0.5em"></rect><text x="10" y="3"><tspan>Send a draft for</tspan><tspan x="10" dy="1.1em">QA</tspan></text></g></g><g transform="matrix(1,0,0,1,0,12)" class="caption-text"><text x="0" y="0em">Verify data</text></g></g></g><g transform="matrix(1,0,0,1,0,24)" class="caption-text"><text x="0" y="0em">Quality</text><text x="0" y="1.1em">Assurance</text></g></g><g transform="matrix(1,0,0,1,1920,-271.1719)" class="mental-space"><rect x="-10" y="-3" width="160" height="274.1719055175781" rx="0.5em" ry="0.5em"></rect><g transform="matrix(1,0,0,1,-10,271.1719)" class="towers"><g transform="matrix(1,0,0,1,20,-158.1875)" class="tower"><rect x="-10" y="-3" width="140" height="161.1875" rx="0.5em" ry="0.5em"></rect><g width="120" transform="matrix(1,0,0,1,0,-450.8125)" class="tower-boxes"><g transform="matrix(1,0,0,1,0,481.8125)" class="box"><rect x="0" y="-11" width="120" height="72.796875" rx="0.5em" ry="0.5em"></rect><text x="10" y="3"><tspan>I question the</tspan><tspan x="10" dy="1.1em">interpretation/</tspan><tspan x="10" dy="1.1em">calculation</tspan><tspan x="10" dy="1.1em">methodology of</tspan><tspan x="10" dy="1.1em">the data</tspan></text></g><g transform="matrix(1,0,0,1,0,564.6094)" class="box"><rect x="0" y="-11" width="120" height="46.390625" rx="0.5em" ry="0.5em"></rect><text x="10" y="3"><tspan>Black box, don't</tspan><tspan x="10" dy="1.1em">understand the</tspan><tspan x="10" dy="1.1em">assumptions</tspan></text></g></g><g transform="matrix(1,0,0,1,0,12)" class="caption-text"><text x="0" y="0em">Calculation method</text></g></g></g><g transform="matrix(1,0,0,1,0,24)" class="caption-text"><text x="0" y="0em">Calculation</text></g></g><g transform="matrix(1,0,0,1,2090,-271.1719)" class="mental-space"><rect x="-10" y="-3" width="310" height="274.1719055175781" rx="0.5em" ry="0.5em"></rect><g transform="matrix(1,0,0,1,-10,271.1719)" class="towers"><g transform="matrix(1,0,0,1,20,-158.1875)" class="tower"><rect x="-10" y="-3" width="140" height="161.1875" rx="0.5em" ry="0.5em"></rect><g width="120" transform="matrix(1,0,0,1,0,-450.8125)" class="tower-boxes"><g transform="matrix(1,0,0,1,0,481.8125)" class="box"><rect x="0" y="-11" width="120" height="46.390625" rx="0.5em" ry="0.5em"></rect><text x="10" y="3"><tspan>I can't see why</tspan><tspan x="10" dy="1.1em">reconciliation is</tspan><tspan x="10" dy="1.1em">not available</tspan></text></g><g transform="matrix(1,0,0,1,0,538.2031)" class="box"><rect x="0" y="-11" width="120" height="72.796875" rx="0.5em" ry="0.5em"></rect><text x="10" y="3"><tspan>The data portal</tspan><tspan x="10" dy="1.1em">doesn't provide</tspan><tspan x="10" dy="1.1em">the underlying</tspan><tspan x="10" dy="1.1em">data, which is</tspan><tspan x="10" dy="1.1em">what I want</tspan></text></g></g><g transform="matrix(1,0,0,1,0,12)" class="caption-text"><text x="0" y="0em">Reconciliation</text></g></g><g transform="matrix(1,0,0,1,170,-184.5781)" class="tower"><rect x="-10" y="-3" width="140" height="187.57809448242188" rx="0.5em" ry="0.5em"></rect><g width="120" transform="matrix(1,0,0,1,0,-424.4219)" class="tower-boxes"><g transform="matrix(1,0,0,1,0,455.4219)" class="box"><rect x="0" y="-11" width="120" height="99.1875" rx="0.5em" ry="0.5em"></rect><text x="10" y="3"><tspan>Ofgam can have</tspan><tspan x="10" dy="1.1em">too much reliance</tspan><tspan x="10" dy="1.1em">on a single</tspan><tspan x="10" dy="1.1em">number when</tspan><tspan x="10" dy="1.1em">making</tspan><tspan x="10" dy="1.1em">consultation</tspan><tspan x="10" dy="1.1em">decisions</tspan></text></g><g transform="matrix(1,0,0,1,0,564.6094)" class="box"><rect x="0" y="-11" width="120" height="46.390625" rx="0.5em" ry="0.5em"></rect><text x="10" y="3"><tspan>Easy to navigate</tspan><tspan x="10" dy="1.1em">through the</tspan><tspan x="10" dy="1.1em">Ofgem website</tspan></text></g></g><g transform="matrix(1,0,0,1,0,12)" class="caption-text"><text x="0" y="0em">Representation</text></g></g></g><g transform="matrix(1,0,0,1,0,24)" class="caption-text"><text x="0" y="0em">Results</text></g></g><g transform="matrix(1,0,0,1,2410,-271.1719)" class="mental-space"><rect x="-10" y="-3" width="160" height="274.1719055175781" rx="0.5em" ry="0.5em"></rect><g transform="matrix(1,0,0,1,-10,271.1719)" class="towers"><g transform="matrix(1,0,0,1,20,-171.3906)" class="tower"><rect x="-10" y="-3" width="140" height="174.39059448242188" rx="0.5em" ry="0.5em"></rect><g width="120" transform="matrix(1,0,0,1,0,-437.6094)" class="tower-boxes"><g transform="matrix(1,0,0,1,0,468.6094)" class="box"><rect x="0" y="-11" width="120" height="86" rx="0.5em" ry="0.5em"></rect><text x="10" y="3"><tspan>Pricing documents</tspan><tspan x="10" dy="1.1em">on network sites,</tspan><tspan x="10" dy="1.1em">National grid</tspan><tspan x="10" dy="1.1em">individual</tspan><tspan x="10" dy="1.1em">company revenue</tspan><tspan x="10" dy="1.1em">build ups</tspan></text></g><g transform="matrix(1,0,0,1,0,564.6094)" class="box"><rect x="0" y="-11" width="120" height="46.390625" rx="0.5em" ry="0.5em"></rect><text x="10" y="3"><tspan>Retail market</tspan><tspan x="10" dy="1.1em">shares, smart</tspan><tspan x="10" dy="1.1em">meter roll- out.</tspan></text></g></g><g transform="matrix(1,0,0,1,0,12)" class="caption-text"><text x="0" y="0em">Data used</text></g></g></g><g transform="matrix(1,0,0,1,0,24)" class="caption-text"><text x="0" y="0em">Published</text></g></g><g transform="matrix(1,0,0,1,2580,-271.1719)" class="mental-space"><rect x="-10" y="-3" width="160" height="274.1719055175781" rx="0.5em" ry="0.5em"></rect><g transform="matrix(1,0,0,1,-10,271.1719)" class="towers"><g transform="matrix(1,0,0,1,20,-75.3906)" class="tower"><rect x="-10" y="-3" width="140" height="78.390625" rx="0.5em" ry="0.5em"></rect><g width="120" transform="matrix(1,0,0,1,0,-533.6094)" class="tower-boxes"><g transform="matrix(1,0,0,1,0,564.6094)" class="box"><rect x="0" y="-11" width="120" height="46.390625" rx="0.5em" ry="0.5em"></rect><text x="10" y="3"><tspan>We want the raw</tspan><tspan x="10" dy="1.1em">data, not</tspan><tspan x="10" dy="1.1em">predigested data</tspan></text></g></g><g transform="matrix(1,0,0,1,0,12)" class="caption-text"><text x="0" y="0em">Access to data</text></g></g></g><g transform="matrix(1,0,0,1,0,24)" class="caption-text"><text x="0" y="0em">Consume</text></g></g><g transform="matrix(1,0,0,1,2750,-271.1719)" class="mental-space"><rect x="-10" y="-3" width="160" height="274.1719055175781" rx="0.5em" ry="0.5em"></rect><g transform="matrix(1,0,0,1,-10,271.1719)" class="towers"><g transform="matrix(1,0,0,1,20,-144.9845)" class="tower"><rect x="-10" y="-3" width="140" height="147.98446655273438" rx="0.5em" ry="0.5em"></rect><g width="120" transform="matrix(1,0,0,1,0,-464.0156)" class="tower-boxes"><g transform="matrix(1,0,0,1,0,495.0156)" class="box"><rect x="0" y="-11" width="120" height="46.390625" rx="0.5em" ry="0.5em"></rect><text x="10" y="3"><tspan>We send similar</tspan><tspan x="10" dy="1.1em">data to CAB and</tspan><tspan x="10" dy="1.1em">BEIS</tspan></text></g><g transform="matrix(1,0,0,1,0.5625,551.4063)" class="box"><rect x="-0.5625" y="-11" width="120" height="59.59375" rx="0.5em" ry="0.5em"></rect><text x="10" y="3"><tspan>I'm employing</tspan><tspan x="10" dy="1.1em">people who's sole</tspan><tspan x="10" dy="1.1em">job is to prepare</tspan><tspan x="10" dy="1.1em">regulatory reports</tspan></text></g></g><g transform="matrix(1,0,0,1,0,12)" class="caption-text"><text x="0" y="0em">Alignment</text></g></g></g><g transform="matrix(1,0,0,1,0,24)" class="caption-text"><text x="0" y="0em">Governance</text></g></g></g></g></svg>